<svg id="visual" viewBox="0 0 960 150" width="960" height="150" xmlns="http://www.w3.org/2000/svg" xmlns:xlink="http://www.w3.org/1999/xlink" version="1.1"><path d="M0 65L9.3 63.5C18.7 62 37.3 59 56.2 66.2C75 73.3 94 90.7 112.8 97.7C131.7 104.7 150.3 101.3 169.2 95.5C188 89.7 207 81.3 225.8 75.8C244.7 70.3 263.3 67.7 282.2 66.8C301 66 320 67 338.8 74.3C357.7 81.7 376.3 95.3 395.2 100C414 104.7 433 100.3 451.8 96.7C470.7 93 489.3 90 508.2 92.7C527 95.3 546 103.7 564.8 102.2C583.7 100.7 602.3 89.3 621.2 86.5C640 83.7 659 89.3 677.8 92C696.7 94.7 715.3 94.3 734.2 90.5C753 86.7 772 79.3 790.8 71.8C809.7 64.3 828.3 56.7 847.2 58.2C866 59.7 885 70.3 903.8 76.2C922.7 82 941.3 83 950.7 83.5L960 84L960 151L950.7 151C941.3 151 922.7 151 903.8 151C885 151 866 151 847.2 151C828.3 151 809.7 151 790.8 151C772 151 753 151 734.2 151C715.3 151 696.7 151 677.8 151C659 151 640 151 621.2 151C602.3 151 583.7 151 564.8 151C546 151 527 151 508.2 151C489.3 151 470.7 151 451.8 151C433 151 414 151 395.2 151C376.3 151 357.7 151 338.8 151C320 151 301 151 282.2 151C263.3 151 244.7 151 225.8 151C207 151 188 151 169.2 151C150.3 151 131.7 151 112.8 151C94 151 75 151 56.2 151C37.3 151 18.7 151 9.3 151L0 151Z" fill="#BA31B1" stroke-linecap="round" stroke-linejoin="miter"></path></svg>