<svg id="visual" viewBox="0 0 960 150" width="960" height="150" xmlns="http://www.w3.org/2000/svg" xmlns:xlink="http://www.w3.org/1999/xlink" version="1.1"><path d="M0 83L9.3 84.5C18.7 86 37.3 89 56.2 81.8C75 74.7 94 57.3 112.8 50.3C131.7 43.3 150.3 46.7 169.2 52.5C188 58.3 207 66.7 225.8 72.2C244.7 77.7 263.3 80.3 282.2 81.2C301 82 320 81 338.8 73.7C357.7 66.3 376.3 52.7 395.2 48C414 43.3 433 47.7 451.8 51.3C470.7 55 489.3 58 508.2 55.3C527 52.7 546 44.3 564.8 45.8C583.7 47.3 602.3 58.7 621.2 61.5C640 64.3 659 58.7 677.8 56C696.7 53.3 715.3 53.7 734.2 57.5C753 61.3 772 68.7 790.8 76.2C809.7 83.7 828.3 91.3 847.2 89.8C866 88.3 885 77.7 903.8 71.8C922.7 66 941.3 65 950.7 64.5L960 64L960 0L950.7 0C941.3 0 922.7 0 903.8 0C885 0 866 0 847.2 0C828.3 0 809.7 0 790.8 0C772 0 753 0 734.2 0C715.3 0 696.7 0 677.8 0C659 0 640 0 621.2 0C602.3 0 583.7 0 564.8 0C546 0 527 0 508.2 0C489.3 0 470.7 0 451.8 0C433 0 414 0 395.2 0C376.3 0 357.7 0 338.8 0C320 0 301 0 282.2 0C263.3 0 244.7 0 225.8 0C207 0 188 0 169.2 0C150.3 0 131.7 0 112.8 0C94 0 75 0 56.2 0C37.3 0 18.7 0 9.3 0L0 0Z" fill="#BA31B1" stroke-linecap="round" stroke-linejoin="miter"></path></svg>